<?xml version="1.0" encoding="utf-8"?>
<!-- Generator: Adobe Illustrator 16.0.0, SVG Export Plug-In . SVG Version: 6.00 Build 0)  -->
<!DOCTYPE svg PUBLIC "-//W3C//DTD SVG 1.1//EN" "http://www.w3.org/Graphics/SVG/1.1/DTD/svg11.dtd">
<svg version="1.1" id="Ebene_1" xmlns="http://www.w3.org/2000/svg" xmlns:xlink="http://www.w3.org/1999/xlink" x="0px" y="0px"
	 width="500px" height="500px" viewBox="0 0 500 500" enable-background="new 0 0 500 500" xml:space="preserve">
<path fill="#76C1D1" d="M482.909,429.326c-4.831,2.036-9.948,3.588-15.187,3.627c-2.61,0.055-5.236-0.491-7.598-1.586l-0.89-0.407
	l-0.776-0.605l-1.538-1.211c-0.99-0.843-1.757-1.944-2.572-2.953c-2.828-4.489-3.238-10.007-2.854-15.163
	c0.392-5.224,1.54-10.299,2.61-15.368l0.83-4.035c0.285-1.547,0.603-3.062,0.822-4.683c0.55-3.101,0.773-6.669,0.601-10.175
	c-0.281-2.431-0.406-4.665-0.829-7.188c-0.461-2.54-0.809-5.119-1.554-7.598c-1.245-5.014-3.16-9.923-6.173-14.123
	c-2.955-4.201-7.082-7.746-12.031-9.417c-4.914-1.729-10.231-1.952-15.446-1.312c-1.518,0.18-3.091,0.415-4.699,0.806
	c-1.625,0.304-3.273,0.766-4.966,1.27c-1.722,0.455-3.389,1.075-5.136,1.678c-1.753,0.618-3.174,1.23-4.836,1.873
	c-6.375,2.644-12.95,5.947-19.71,9.537c-6.758,3.593-13.685,7.502-20.752,11.344c-3.538,1.938-7.1,3.817-10.703,5.668
	c-3.583,1.732-7.619,3.901-11.222,5.933c-14.607,8.26-28.711,16.597-41.812,23.398c-13.053,6.837-24.95,12.216-34.174,15.534
	c16.964-6.947,33.436-15.833,49.754-25.17l24.636-14.286c4.105-2.355,8.748-4.888,12.825-6.899c4.1-2.124,8.204-4.37,12.318-6.648
	c8.234-4.573,16.535-9.317,25.199-13.785c4.349-2.219,8.79-4.363,13.425-6.32l3.52-1.428l4.084-1.46
	c2.786-0.88,5.624-1.715,8.482-2.281c5.711-1.151,11.591-1.482,17.188-0.148c5.593,1.33,10.693,4.532,14.343,8.957
	c3.714,4.391,6.09,9.774,7.737,15.337c0.371,1.408,0.813,2.797,1.126,4.223l0.804,4.312c0.317,1.492,0.453,2.772,0.596,4.064
	c0.146,1.31,0.294,2.621,0.81,3.898c0.215,3.64,0.005,7.371-0.505,10.464c-0.427,3.171-1.115,6.469-1.515,8.453
	c-0.902,4.442-1.854,8.762-2.272,13.251c-0.422,4.426-0.261,9.149,1.883,13.155c0.279,0.486,0.508,1.013,0.835,1.467l1.087,1.288
	c0.645,0.943,1.683,1.475,2.526,2.211c1.845,1.272,4.093,1.865,6.313,2.107c4.5,0.344,8.974-0.769,13.174-2.367
	c0,0,2.499-2.751-2.083-1.339c-5.464,1.684-11.007,2.243-15.441-0.449c-2.039-1.498-3.759-3.349-4.695-5.577
	c-0.903-2.204-1.368-4.507-1.388-6.716c-0.133-4.428,0.648-8.415,1.331-11.87c0.37-1.741,0.716-3.37,1.039-4.872
	c0.17-0.811,0.337-1.584,0.492-2.325c0.203-1.064,0.396-2.078,0.577-3.041c0.36-1.93,0.611-3.83,0.833-5.441
	c0.143-1.731,0.305-3.249,0.335-4.528c-0.053-2.59-0.081-3.971-0.081-3.971l-0.005-0.1l-0.745-6.488
	c-0.478-2.441-0.886-4.927-1.427-7.373c-1.311-4.812-2.737-9.678-5.258-13.978c-2.451-4.299-5.603-8.289-9.704-11.22
	c-4.078-2.96-8.986-4.685-14.024-5.371c4.937,0.632,9.795,2.272,13.876,5.153c4.109,2.856,7.312,6.798,9.813,11.09l1.744,3.325
	l1.376,3.514l0.688,1.76l0.51,1.833l1.011,3.659c0.573,2.474,0.948,5.001,1.431,7.489c0.234,2.201,0.472,4.405,0.92,6.592
	l-0.205,0.114c0.054,1.628,0.143,3.288,0.086,4.885c-0.114,1.571-0.182,3.15-0.371,4.551c-0.344,2.81-0.819,5.552-1.258,7.949
	c-0.682,3.622-1.324,6.668-1.791,10.033c-0.442,3.289-0.714,6.625-0.228,9.908c0.46,3.257,1.948,6.477,4.607,8.542
	c2.533,2.246,6.194,2.758,9.509,2.432c3.383-0.326,6.664-1.394,9.787-2.763c3.134-1.369,6.144-3.032,9.085-4.833
	c0,0,3.903-3.138,1.028-5.638c-1.234-1.073-3.311-0.211-3.311-0.211l-1.299,0.662c-0.864,0.43-1.73,0.835-2.598,1.206
	c-3.453,1.453-6.975,2.621-10.484,2.317c-3.584-0.121-6.501-3.234-6.954-6.69c-0.47-3.479,0.374-6.817,1.116-9.834l0.61-2.372
	l0.168-0.672l0.082-0.334l0.118-0.546l0.641-3.234c0.221-1.021,0.396-2.343,0.586-3.501c0.189-1.174,0.371-2.372,0.484-3.825
	c0.329-2.73,0.308-5.902,0.189-8.937c-0.201-2.002-0.405-3.991-0.603-5.965l-0.171-1.487l-0.34-1.824l-0.682-3.642
	c-0.364-2.448-1.059-4.771-1.753-7.081l-1.019-3.462l-1.36-3.267c-0.458-1.08-0.877-2.182-1.372-3.234l-1.679-3.015
	c-1.059-2.048-2.486-3.785-3.811-5.591c-0.629-0.937-1.413-1.723-2.181-2.521c-0.77-0.791-1.512-1.611-2.295-2.38
	c-1.702-1.381-3.29-2.891-5.162-3.98c-7.262-4.796-15.676-6.604-23.698-6.587c-8.043-0.022-16.01,2.078-22.949,4.352
	c-3.845,1.316-5.698,2.151-8.159,3.13c-2.242,0.983-4.447,1.933-6.429,2.894c-4.065,1.9-7.582,3.738-10.786,5.426
	c-6.356,3.396-11.205,6.21-14.719,8.29c-4.672,2.807-9.289,5.587-13.882,8.344c-2.281,1.371-4.326,2.622-6.712,3.993
	c-2.115,1.2-5.159,3.054-7.557,4.593c-9.578,6.189-18.227,12.372-27.191,18.442c-17.771,11.994-36.338,24.059-57.858,31.985
	c-7.156,2.577-13.879,4.045-19.858,4.788c-5.992,0.731-11.163,0.791-15.659,0.771c-1.067,0.825-5.563,0.573-9.567-0.794
	c-4.801-2.419-8.523-6.55-11.097-12.208c-1.489-3.516-2.967-7.007-4.428-10.459c-1.332-3.491-2.459-7.007-3.692-10.414
	c-4.501-13.82-7.148-27.017-9.768-38.59c-0.86-4.067-0.565-10.147,0.283-16.824c0.603-3.346,1.179-6.834,2.027-10.315
	c0.975-3.481,1.801-6.968,2.944-10.289c1.196-3.323,2.152-6.521,3.358-9.433c1.145-2.896,2.2-5.567,3.114-7.887
	c1.988-4.584,3.058-7.789,2.672-8.771c-2.74-7.178-3.244-8.359-1.348-12.039c0.968-1.83,2.322-4.385,4.563-8.625
	c2.221-4.235,5.054-10.22,9.394-18.828c1.017-2.088,2.475-6.896,4.292-12.277c0.988-2.651,2.073-5.438,3.211-8.08
	c1.208-2.604,2.519-5.036,3.833-7.021c9.529-12.968,15.689-21.354,22.212-30.237c3.236-4.475,6.707-8.945,10.885-14.038
	c4.233-4.978,9.305-10.628,15.891-16.457c1.217-1.065,2.236-2.058,3.547-3.122c1.294-1.051,2.55-2.077,3.785-3.08
	c2.503-1.997,4.933-3.848,7.275-5.595c4.708-3.46,9.07-6.5,13.23-9.159c4.301-2.781,8.332-5.211,12.229-7.447
	c0.565-0.061,1.138-0.121,1.703-0.184c1.463-0.086,2.922-0.171,4.371-0.259c2.894-0.259,5.724-0.271,8.484-0.331
	c22.08-0.517,38.862,3.704,39.095-1.091c6.636,1.897,11.896,3.531,16.517,5.07c4.637,1.511,8.628,2.91,12.667,4.412
	c7.983,3.121,16.29,6.723,27.761,16.312c10.985,9.225,21.691,21.206,30.773,35.767c9.099,14.522,16.562,31.665,20.84,50.545
	c0,0,2.602,18.887,14.555,11.312c13.164-8.346,13.985-41.477,13.317-57.035c-0.888-15.494-2.457-30.875-5.854-46.201
	c-3.415-15.255-8.743-30.71-18.304-44.748c-7.148-10.422-16.671-19.265-27.135-25.165c-14.321-8.18-30.475-11.059-45.264-10.854
	c-7.428,0.137-14.659,0.904-21.651,2.136c-6.957,1.313-13.731,2.949-20.272,4.945c-15.981,4.949-30.823,11.35-44.883,18.554
	c-0.444,0.016-0.901,0.027-1.345,0.043c-3.128,0.216-6.192,0.323-9.169,0.58c-2.98,0.293-5.893,0.58-8.755,0.864
	c-5.673,0.777-11.294,1.478-16.463,2.419c-21.031,3.529-41.252,7.26-67.768,15.684c-3.72,1.371-7.185,2.71-10.434,3.988
	c-3.233,1.311-6.209,2.647-9.026,3.831c-5.657,2.327-10.456,4.544-14.909,5.982c-2.242,0.705-5.062,2.111-8.233,3.968
	c-3.165,1.864-6.786,3.957-10.427,6.444c-7.38,4.793-15.228,10.318-22.136,14.253c0.652-1.435,1.337-2.84,2.039-4.23
	c-4.656,2.642-13.879,7.99-18.367,10.958c-4.547,2.869-3.92,1.417-3.29-0.035c1.251-2.904,2.552-5.847-6.021-1.466
	c-9.656,6.088-19.319,12.537-28.673,19.914c-4.744,3.558-9.303,7.544-13.94,11.47c-4.512,4.157-9.125,8.209-13.48,12.807
	c-4.039,4.692-7.786,9.807-11.517,14.82c-3.585,5.275-7.139,10.485-10.319,16.161c-6.41,11.215-11.96,23.406-15.37,37.047
	c0.648,1.913,1.207,4.042,1.107,7.985c-1.076,8.369-1.743,16.903-0.436,25.715c2.849,5.053,5.313,2.973,7.541,6.033
	c1.763-0.26,3.877,1.555,6.118,3.951c1.049,1.223,2.402,2.535,3.758,3.85c1.342,1.316,2.692,2.636,3.994,3.835
	c2.905,2.277,5.729,4.018,7.871,4.627c2.19,0.576,3.9,0.139,4.5-2.048c0.165-0.761-0.574-3.197-1.811-6.555
	c-0.368-1.777-0.833-3.796-1.368-5.958c-0.216-2.251-0.561-4.642-0.655-7.146c0.043-1.262,0.085-2.547,0.127-3.844
	c0.026-0.646,0.021-1.288,0.072-1.936l0.322-1.959c0.21-1.3,0.422-2.595,0.634-3.879c0.238-1.273,0.708-2.538,1.048-3.764
	c0.385-1.23,0.702-2.436,1.129-3.585c0.506-1.14,1.003-2.243,1.475-3.304c0.499-1.043,0.972-2.038,1.422-2.984
	c0.566-0.922,1.118-1.777,1.648-2.555c1.106-1.401,1.471-0.022,1.732,2.109c0.133,2.135,0.809,5.028,1.526,6.797
	c2.308-8.331,5.413-12.489,6.928-13.478c1.565-1.016,1.996,1.021,1.456,4.714c1-1.811,1.997-3.617,2.743-4.969
	c0.688-1.359,1.323-2.243,1.323-2.243c0.079,0.655,0.315,1.97,0.629,3.099c0.276,1.114,0.516,2.07,0.516,2.07
	c5.416-9.251,13.106-18.51,21.961-27.216c8.868-8.729,18.893-16.967,29.354-24.726c20.963-15.548,43.549-29.209,64.692-42.21
	c9.096-5.502,24.402-14.761,34.95-20.489c0.414-0.236,0.889-0.471,1.388-0.709c-15.569,16.869-29.076,35.164-40.443,54.878
	c-6.151,10.7-11.646,21.819-16.36,33.348c-4.659,11.549-8.481,23.525-11.33,35.834c-5.842,24.578-7.066,50.729-3.272,76.579
	c2.073,12.902,5.402,25.654,9.829,38.107c2.447,6.13,4.763,12.354,7.77,18.272l2.146,4.499c0.404,0.791,0.617,1.408,1.184,2.345
	l1.54,2.642c1.044,1.754,2.022,3.519,3.408,5.179c1.348,1.658,2.498,3.407,4.083,4.929c5.866,6.383,13.926,11.337,22.152,13.711
	c8.248,2.461,16.401,2.814,23.994,2.246c15.265-1.223,28.747-5.888,41.673-11.262c18.723-7.991,35.899-17.906,52.698-28.069
	c8.267-5.106,16.545-10.222,24.828-15.336l6.116-3.696c2.04-1.193,3.771-2.256,6.035-3.442c4.315-2.305,8.73-4.822,12.95-7.281
	c8.509-4.939,16.771-9.967,25.063-14.501c8.076-4.473,17.28-8.863,23.379-10.486c3.411-0.932,7.012-1.492,10.568-1.016
	c3.572,0.388,6.867,2.325,9.16,5.04c2.328,2.73,3.743,6.105,4.769,9.53c0.516,1.723,0.901,3.479,1.206,5.256
	c0.187,0.817,0.313,1.875,0.442,2.965l0.401,3.157c1.217,8.611-6.767,29.717-3.936,45.004c0.55,3.974,1.795,7.845,3.868,11.3
	c1.93,3.575,5.197,6.241,8.498,8.526c3.564,1.949,7.57,2.903,11.542,3.126c4.001,0.178,8.229,0.36,11.977-1.216
	C485.75,440.125,482.909,429.326,482.909,429.326z M377.534,91.276c7.556-1.951,17.231-3.496,26.507-3.195
	c9.325,0.094,17.991,2.497,24.002,5.27c3.073,1.258,5.355,2.877,7.084,3.783c1.608,1.104,2.521,1.733,2.521,1.733
	c10.6,8.72,17.262,20.052,21.952,31.402c4.644,11.435,7.319,23.017,9.017,34.351c1.009,6.985,1.603,13.877,1.881,20.771
	c-0.007-0.016-0.013-0.03-0.023-0.047c-7.973-14.923-17.779-29.727-29.873-42.915c-11.953-13.283-26.247-24.819-41.753-33.573
	c-7.788-4.299-15.81-8.017-23.974-10.833c-3.256-1.083-6.512-2.06-9.762-2.954C367.622,94.147,372.011,92.648,377.534,91.276z"/>
</svg>
