<svg xmlns="http://www.w3.org/2000/svg" style="display: none;"><symbol id="cool" viewBox="0 0 265.117 265.117"><title>cool</title><path d="M264.886,86.714c-0.929-7.137-4.583-13.485-10.287-17.875c-11.774-9.061-28.725-6.854-37.792,4.928l-9.029,11.762 l0.729-6.29c0.872-7.521-1.238-14.932-5.94-20.866c-4.702-5.935-11.433-9.683-18.955-10.555c-7.52-0.868-14.932,1.238-20.866,5.94 c-0.507,0.401-0.991,0.823-1.466,1.253c-4.481-6.507-11.63-11.128-20.076-12.107c-7.521-0.869-14.931,1.238-20.866,5.94 c-0.503,0.398-0.984,0.817-1.455,1.244c-0.361-0.523-0.734-1.04-1.132-1.543c-4.702-5.935-11.434-9.683-18.955-10.555 c-7.52-0.87-14.932,1.238-20.866,5.94c-5.935,4.702-9.683,11.434-10.555,18.955l-1.338,11.543L52.931,26.411 C51.036,19.467,46.55,13.677,40.3,10.108c-6.25-3.57-13.516-4.491-20.459-2.596C5.508,11.425-2.97,26.269,0.962,40.671 l37.914,133.577c4.05,14.267,11.623,26.965,22.075,37.177c-0.145,0.561-0.23,1.146-0.23,1.752v38.391c0,3.866,3.134,7,7,7h101.125 c3.866,0,7-3.134,7-7v-38.391c0-0.023-0.003-0.045-0.003-0.068c3.103-2.753,6.031-5.739,8.75-8.956 c0.07-0.083,0.138-0.167,0.205-0.254l74.723-97.272C263.91,100.923,265.816,93.851,264.886,86.714z M171.441,64.732 c2.561-2.028,5.663-3.104,8.881-3.104c0.557,0,1.118,0.032,1.679,0.098c3.807,0.441,7.213,2.338,9.593,5.342 s3.447,6.753,3.006,10.56v0l-4.391,37.89c-0.441,3.807-2.338,7.213-5.341,9.593c-3.004,2.38-6.755,3.451-10.56,3.006 c-7.858-0.911-13.51-8.044-12.599-15.902l4.391-37.89C166.541,70.518,168.438,67.112,171.441,64.732z M129.033,59.818 c2.561-2.028,5.663-3.104,8.881-3.104c0.557,0,1.118,0.032,1.68,0.098c7.857,0.91,13.509,8.044,12.599,15.902l-5.828,50.294 c-0.441,3.807-2.338,7.213-5.341,9.593c-3.003,2.38-6.75,3.451-10.561,3.006c-3.806-0.441-7.213-2.338-9.593-5.341 c-2.38-3.003-3.447-6.753-3.006-10.56l5.828-50.295C124.133,65.604,126.03,62.197,129.033,59.818z M75.456,114.791l5.828-50.295 c0.846-7.299,7.062-12.695,14.24-12.695c0.549,0,1.104,0.031,1.662,0.096c3.806,0.441,7.213,2.338,9.593,5.341 c2.379,3.003,3.447,6.754,3.006,10.561l-5.828,50.294c-0.911,7.858-8.049,13.511-15.902,12.599 c-3.806-0.441-7.213-2.338-9.593-5.341S75.015,118.597,75.456,114.791z M161.847,244.567H74.721v-22.235 c12.335,7.825,26.344,12.154,41.002,12.579c0.851,0.025,1.704,0.037,2.561,0.037c15.507,0,30.484-4.125,43.563-11.721V244.567z M248.422,98.093l-74.625,97.144c-13.871,16.343-34.095,25.711-55.513,25.711c-0.719,0-1.436-0.01-2.153-0.031 c-29.827-0.865-55.46-21.156-63.788-50.492L14.449,36.916c-0.911-3.336-0.468-6.827,1.247-9.83s4.496-5.158,7.832-6.068 c3.337-0.912,6.827-0.468,9.829,1.247c3.002,1.715,5.158,4.496,6.068,7.832l21.755,79.69c0.143,0.523,0.346,1.011,0.591,1.469 l-0.223,1.922c-0.872,7.521,1.238,14.932,5.94,20.866c4.702,5.935,11.434,9.683,18.955,10.555c1.104,0.128,2.198,0.19,3.284,0.19 c7.22,0,13.944-2.768,19.03-7.384c0.363,0.527,0.738,1.048,1.14,1.554c4.702,5.935,11.434,9.683,18.954,10.554 c1.11,0.128,2.219,0.192,3.32,0.192c6.357,0,12.488-2.125,17.546-6.132c3.037-2.406,5.497-5.346,7.296-8.649 c4.222,3.809,9.617,6.395,15.684,7.099c1.11,0.128,2.217,0.192,3.318,0.192c6.357,0,12.489-2.125,17.547-6.132 c5.935-4.702,9.683-11.434,10.555-18.955l0.524-4.519l23.267-30.311c4.355-5.656,12.499-6.717,18.154-2.365 c2.74,2.109,4.496,5.159,4.942,8.588C251.45,91.951,250.535,95.348,248.422,98.093z"/></symbol><symbol id="surfer" viewBox="0 0 512 512"><title>surfer</title><g> <g> <path d="M428.841,80.405c-8.781-23.849-19.199-42.796-30.965-56.314C388.31,13.101,372.59,0,352.025,0 s-36.285,13.101-45.851,24.091c-11.767,13.518-22.185,32.465-30.965,56.314c-11.139,30.255-19.059,66.789-23.308,106.551 l-100.69-10.868c-4.893-1.013-9.959-1.548-15.147-1.548h-5.171c-41.16,0-74.645,33.486-74.645,74.646v145.771h24.738V512h30 V394.956h44.986V512h30V394.956h24.738v-145.77c0-13.706-3.73-26.551-10.203-37.602l48.933,5.282 c-0.751,12.836-1.141,25.908-1.141,39.135c0,66.097,9.557,128.458,26.911,175.595c8.781,23.849,19.199,42.796,30.965,56.314 c9.566,10.989,25.285,24.09,45.85,24.09s36.285-13.101,45.851-24.091c11.767-13.518,22.185-32.465,30.965-56.314 c17.354-47.137,26.911-109.498,26.911-175.595S446.195,127.542,428.841,80.405z M180.709,364.957H86.248V249.186 c0-24.618,20.028-44.646,44.645-44.646h4.362l10.999,1.187c19.721,4.624,34.455,22.347,34.455,43.459V364.957z M303.362,90.77 C317.372,52.718,335.563,30,352.025,30c16.462,0,34.654,22.718,48.663,60.77c3.952,10.735,7.467,22.358,10.527,34.703 l-131.466,87.294C282.874,166.673,290.986,124.387,303.362,90.77z M278.298,256c0-2.098,0.012-4.191,0.032-6.28l139.458-92.601 c2.304,13.478,4.128,27.553,5.444,42.073L279.455,294.66C278.693,282.011,278.298,269.094,278.298,256z M400.689,421.23 c-14.01,38.052-32.202,60.77-48.664,60.77c-16.462,0-34.654-22.718-48.663-60.77c-2.379-6.461-4.595-13.249-6.654-20.316 l126.108-83.736C418.974,356.279,411.44,392.027,400.689,421.23z M425.33,279.498L289.093,369.96 c-2.695-13.145-4.909-26.964-6.613-41.297l142.892-94.881c0.25,7.338,0.381,14.749,0.381,22.218 C425.753,263.903,425.61,271.743,425.33,279.498z"/> </g> </g><g> <g> <path d="M133.478,30c-35.125,0-63.702,28.577-63.702,63.703c0,35.125,28.577,63.702,63.702,63.702 c35.126,0,63.703-28.577,63.703-63.702C197.181,58.577,168.604,30,133.478,30z M133.478,127.405 c-18.584,0-33.702-15.119-33.702-33.702S114.895,60,133.478,60s33.703,15.119,33.703,33.703S152.062,127.405,133.478,127.405z"/> </g> </g></symbol><symbol id="logout" viewBox="0 0 490.3 490.3"><title>logout</title><path d="M0,121.05v248.2c0,34.2,27.9,62.1,62.1,62.1h200.6c34.2,0,62.1-27.9,62.1-62.1v-40.2c0-6.8-5.5-12.3-12.3-12.3 s-12.3,5.5-12.3,12.3v40.2c0,20.7-16.9,37.6-37.6,37.6H62.1c-20.7,0-37.6-16.9-37.6-37.6v-248.2c0-20.7,16.9-37.6,37.6-37.6h200.6 c20.7,0,37.6,16.9,37.6,37.6v40.2c0,6.8,5.5,12.3,12.3,12.3s12.3-5.5,12.3-12.3v-40.2c0-34.2-27.9-62.1-62.1-62.1H62.1 C27.9,58.95,0,86.75,0,121.05z"/><path d="M385.4,337.65c2.4,2.4,5.5,3.6,8.7,3.6s6.3-1.2,8.7-3.6l83.9-83.9c4.8-4.8,4.8-12.5,0-17.3l-83.9-83.9 c-4.8-4.8-12.5-4.8-17.3,0s-4.8,12.5,0,17.3l63,63H218.6c-6.8,0-12.3,5.5-12.3,12.3c0,6.8,5.5,12.3,12.3,12.3h229.8l-63,63 C380.6,325.15,380.6,332.95,385.4,337.65z"/></symbol><symbol id="edit" viewBox="0 0 490.337 490.337"><title>edit</title><path d="M229.9,145.379l-47.5,47.5c-17.5,17.5-35.1,35-52.5,52.7c-4.1,4.2-7.2,9.8-8.4,15.3c-6.3,28.9-12.4,57.8-18.5,86.7 l-3.4,16c-1.6,7.8,0.5,15.6,5.8,20.9c4.1,4.1,9.8,6.4,15.8,6.4c1.7,0,3.4-0.2,5.1-0.5l17.6-3.7c28-5.9,56.1-11.9,84.1-17.7 c6.5-1.4,12-4.3,16.7-9c78.6-78.7,157.2-157.3,235.8-235.8c5.8-5.8,9-12.7,9.8-21.2c0.1-1.4,0-2.8-0.3-4.1c-0.5-2-0.9-4.1-1.4-6.1 c-1.1-5.1-2.3-10.9-4.7-16.5l0,0c-14.7-33.6-39.1-57.6-72.5-71.1c-6.7-2.7-13.8-3.6-20-4.4l-1.7-0.2c-9-1.1-17.2,1.9-24.3,9.1 C320.4,54.879,275.1,100.179,229.9,145.379z M386.4,24.679c0.2,0,0.3,0,0.5,0l1.7,0.2c5.2,0.6,10,1.2,13.8,2.8 c27.2,11,47.2,30.6,59.3,58.2c1.4,3.2,2.3,7.3,3.2,11.6c0.3,1.6,0.7,3.2,1,4.8c-0.4,1.8-1.1,3-2.5,4.3 c-78.7,78.5-157.3,157.2-235.9,235.8c-1.3,1.3-2.5,1.9-4.3,2.3c-28.1,5.9-56.1,11.8-84.2,17.7l-14.8,3.1l2.8-13.1 c6.1-28.8,12.2-57.7,18.4-86.5c0.2-0.9,1-2.3,1.9-3.3c17.4-17.6,34.8-35.1,52.3-52.5l47.5-47.5c45.3-45.3,90.6-90.6,135.8-136 C384.8,24.979,385.7,24.679,386.4,24.679z"/><path d="M38.9,109.379h174.6c6.8,0,12.3-5.5,12.3-12.3s-5.5-12.3-12.3-12.3H38.9c-21.5,0-38.9,17.5-38.9,38.9v327.4 c0,21.5,17.5,38.9,38.9,38.9h327.3c21.5,0,38.9-17.5,38.9-38.9v-167.5c0-6.8-5.5-12.3-12.3-12.3s-12.3,5.5-12.3,12.3v167.5 c0,7.9-6.5,14.4-14.4,14.4H38.9c-7.9,0-14.4-6.5-14.4-14.4v-327.3C24.5,115.879,31,109.379,38.9,109.379z"/></symbol><symbol id="delete-button" viewBox="0 0 482.428 482.429"><title>delete-button</title><path d="M381.163,57.799h-75.094C302.323,25.316,274.686,0,241.214,0c-33.471,0-61.104,25.315-64.85,57.799h-75.098 c-30.39,0-55.111,24.728-55.111,55.117v2.828c0,23.223,14.46,43.1,34.83,51.199v260.369c0,30.39,24.724,55.117,55.112,55.117 h210.236c30.389,0,55.111-24.729,55.111-55.117V166.944c20.369-8.1,34.83-27.977,34.83-51.199v-2.828 C436.274,82.527,411.551,57.799,381.163,57.799z M241.214,26.139c19.037,0,34.927,13.645,38.443,31.66h-76.879 C206.293,39.783,222.184,26.139,241.214,26.139z M375.305,427.312c0,15.978-13,28.979-28.973,28.979H136.096 c-15.973,0-28.973-13.002-28.973-28.979V170.861h268.182V427.312z M410.135,115.744c0,15.978-13,28.979-28.973,28.979H101.266 c-15.973,0-28.973-13.001-28.973-28.979v-2.828c0-15.978,13-28.979,28.973-28.979h279.897c15.973,0,28.973,13.001,28.973,28.979 V115.744z"/><path d="M171.144,422.863c7.218,0,13.069-5.853,13.069-13.068V262.641c0-7.216-5.852-13.07-13.069-13.07 c-7.217,0-13.069,5.854-13.069,13.07v147.154C158.074,417.012,163.926,422.863,171.144,422.863z"/><path d="M241.214,422.863c7.218,0,13.07-5.853,13.07-13.068V262.641c0-7.216-5.854-13.07-13.07-13.07 c-7.217,0-13.069,5.854-13.069,13.07v147.154C228.145,417.012,233.996,422.863,241.214,422.863z"/><path d="M311.284,422.863c7.217,0,13.068-5.853,13.068-13.068V262.641c0-7.216-5.852-13.07-13.068-13.07 c-7.219,0-13.07,5.854-13.07,13.07v147.154C298.213,417.012,304.067,422.863,311.284,422.863z"/></symbol></svg>