<?xml version="1.0" encoding="iso-8859-1"?>
<!-- Generator: Adobe Illustrator 19.0.0, SVG Export Plug-In . SVG Version: 6.00 Build 0)  -->
<svg version="1.1" id="Capa_1" xmlns="http://www.w3.org/2000/svg" xmlns:xlink="http://www.w3.org/1999/xlink" x="0px" y="0px"
	 viewBox="0 0 512 512" style="enable-background:new 0 0 512 512;" xml:space="preserve">
<g>
	<g>
		<path d="M428.841,80.405c-8.781-23.849-19.199-42.796-30.965-56.314C388.31,13.101,372.59,0,352.025,0
			s-36.285,13.101-45.851,24.091c-11.767,13.518-22.185,32.465-30.965,56.314c-11.139,30.255-19.059,66.789-23.308,106.551
			l-100.69-10.868c-4.893-1.013-9.959-1.548-15.147-1.548h-5.171c-41.16,0-74.645,33.486-74.645,74.646v145.771h24.738V512h30
			V394.956h44.986V512h30V394.956h24.738v-145.77c0-13.706-3.73-26.551-10.203-37.602l48.933,5.282
			c-0.751,12.836-1.141,25.908-1.141,39.135c0,66.097,9.557,128.458,26.911,175.595c8.781,23.849,19.199,42.796,30.965,56.314
			c9.566,10.989,25.285,24.09,45.85,24.09s36.285-13.101,45.851-24.091c11.767-13.518,22.185-32.465,30.965-56.314
			c17.354-47.137,26.911-109.498,26.911-175.595S446.195,127.542,428.841,80.405z M180.709,364.957H86.248V249.186
			c0-24.618,20.028-44.646,44.645-44.646h4.362l10.999,1.187c19.721,4.624,34.455,22.347,34.455,43.459V364.957z M303.362,90.77
			C317.372,52.718,335.563,30,352.025,30c16.462,0,34.654,22.718,48.663,60.77c3.952,10.735,7.467,22.358,10.527,34.703
			l-131.466,87.294C282.874,166.673,290.986,124.387,303.362,90.77z M278.298,256c0-2.098,0.012-4.191,0.032-6.28l139.458-92.601
			c2.304,13.478,4.128,27.553,5.444,42.073L279.455,294.66C278.693,282.011,278.298,269.094,278.298,256z M400.689,421.23
			c-14.01,38.052-32.202,60.77-48.664,60.77c-16.462,0-34.654-22.718-48.663-60.77c-2.379-6.461-4.595-13.249-6.654-20.316
			l126.108-83.736C418.974,356.279,411.44,392.027,400.689,421.23z M425.33,279.498L289.093,369.96
			c-2.695-13.145-4.909-26.964-6.613-41.297l142.892-94.881c0.25,7.338,0.381,14.749,0.381,22.218
			C425.753,263.903,425.61,271.743,425.33,279.498z"/>
	</g>
</g>
<g>
	<g>
		<path d="M133.478,30c-35.125,0-63.702,28.577-63.702,63.703c0,35.125,28.577,63.702,63.702,63.702
			c35.126,0,63.703-28.577,63.703-63.702C197.181,58.577,168.604,30,133.478,30z M133.478,127.405
			c-18.584,0-33.702-15.119-33.702-33.702S114.895,60,133.478,60s33.703,15.119,33.703,33.703S152.062,127.405,133.478,127.405z"/>
	</g>
</g>
<g>
</g>
<g>
</g>
<g>
</g>
<g>
</g>
<g>
</g>
<g>
</g>
<g>
</g>
<g>
</g>
<g>
</g>
<g>
</g>
<g>
</g>
<g>
</g>
<g>
</g>
<g>
</g>
<g>
</g>
</svg>
